<mxfile host="app.diagrams.net" modified="2024-09-05T06:31:51.718Z" agent="Mozilla/5.0 (Windows NT 10.0; Win64; x64) AppleWebKit/537.36 (KHTML, like Gecko) Chrome/128.0.0.0 Safari/537.36" etag="xdQ2plB8-eBzpHX9eN9X" version="24.3.0" type="github" pages="3">
  <diagram id="C5RBs43oDa-KdzZeNtuy" name="Page-1">
    <mxGraphModel dx="1674" dy="818" grid="1" gridSize="10" guides="1" tooltips="1" connect="1" arrows="1" fold="1" page="1" pageScale="1" pageWidth="827" pageHeight="1169" math="0" shadow="0">
      <root>
        <mxCell id="WIyWlLk6GJQsqaUBKTNV-0" />
        <mxCell id="WIyWlLk6GJQsqaUBKTNV-1" parent="WIyWlLk6GJQsqaUBKTNV-0" />
        <mxCell id="zkfFHV4jXpPFQw0GAbJ--0" value="Person" style="swimlane;fontStyle=2;align=center;verticalAlign=top;childLayout=stackLayout;horizontal=1;startSize=26;horizontalStack=0;resizeParent=1;resizeLast=0;collapsible=1;marginBottom=0;rounded=0;shadow=0;strokeWidth=1;" parent="WIyWlLk6GJQsqaUBKTNV-1" vertex="1">
          <mxGeometry x="220" y="120" width="160" height="138" as="geometry">
            <mxRectangle x="230" y="140" width="160" height="26" as="alternateBounds" />
          </mxGeometry>
        </mxCell>
        <mxCell id="zkfFHV4jXpPFQw0GAbJ--1" value="Name" style="text;align=left;verticalAlign=top;spacingLeft=4;spacingRight=4;overflow=hidden;rotatable=0;points=[[0,0.5],[1,0.5]];portConstraint=eastwest;" parent="zkfFHV4jXpPFQw0GAbJ--0" vertex="1">
          <mxGeometry y="26" width="160" height="26" as="geometry" />
        </mxCell>
        <mxCell id="zkfFHV4jXpPFQw0GAbJ--2" value="Phone Number" style="text;align=left;verticalAlign=top;spacingLeft=4;spacingRight=4;overflow=hidden;rotatable=0;points=[[0,0.5],[1,0.5]];portConstraint=eastwest;rounded=0;shadow=0;html=0;" parent="zkfFHV4jXpPFQw0GAbJ--0" vertex="1">
          <mxGeometry y="52" width="160" height="26" as="geometry" />
        </mxCell>
        <mxCell id="zkfFHV4jXpPFQw0GAbJ--3" value="Email Address" style="text;align=left;verticalAlign=top;spacingLeft=4;spacingRight=4;overflow=hidden;rotatable=0;points=[[0,0.5],[1,0.5]];portConstraint=eastwest;rounded=0;shadow=0;html=0;" parent="zkfFHV4jXpPFQw0GAbJ--0" vertex="1">
          <mxGeometry y="78" width="160" height="26" as="geometry" />
        </mxCell>
        <mxCell id="zkfFHV4jXpPFQw0GAbJ--4" value="" style="line;html=1;strokeWidth=1;align=left;verticalAlign=middle;spacingTop=-1;spacingLeft=3;spacingRight=3;rotatable=0;labelPosition=right;points=[];portConstraint=eastwest;" parent="zkfFHV4jXpPFQw0GAbJ--0" vertex="1">
          <mxGeometry y="104" width="160" height="8" as="geometry" />
        </mxCell>
        <mxCell id="zkfFHV4jXpPFQw0GAbJ--5" value="Purchase Parking Pass" style="text;align=left;verticalAlign=top;spacingLeft=4;spacingRight=4;overflow=hidden;rotatable=0;points=[[0,0.5],[1,0.5]];portConstraint=eastwest;" parent="zkfFHV4jXpPFQw0GAbJ--0" vertex="1">
          <mxGeometry y="112" width="160" height="26" as="geometry" />
        </mxCell>
        <mxCell id="zkfFHV4jXpPFQw0GAbJ--6" value="Student" style="swimlane;fontStyle=0;align=center;verticalAlign=top;childLayout=stackLayout;horizontal=1;startSize=26;horizontalStack=0;resizeParent=1;resizeLast=0;collapsible=1;marginBottom=0;rounded=0;shadow=0;strokeWidth=1;" parent="WIyWlLk6GJQsqaUBKTNV-1" vertex="1">
          <mxGeometry x="120" y="360" width="160" height="138" as="geometry">
            <mxRectangle x="130" y="380" width="160" height="26" as="alternateBounds" />
          </mxGeometry>
        </mxCell>
        <mxCell id="zkfFHV4jXpPFQw0GAbJ--7" value="Student Number" style="text;align=left;verticalAlign=top;spacingLeft=4;spacingRight=4;overflow=hidden;rotatable=0;points=[[0,0.5],[1,0.5]];portConstraint=eastwest;" parent="zkfFHV4jXpPFQw0GAbJ--6" vertex="1">
          <mxGeometry y="26" width="160" height="26" as="geometry" />
        </mxCell>
        <mxCell id="zkfFHV4jXpPFQw0GAbJ--8" value="Average Mark" style="text;align=left;verticalAlign=top;spacingLeft=4;spacingRight=4;overflow=hidden;rotatable=0;points=[[0,0.5],[1,0.5]];portConstraint=eastwest;rounded=0;shadow=0;html=0;" parent="zkfFHV4jXpPFQw0GAbJ--6" vertex="1">
          <mxGeometry y="52" width="160" height="26" as="geometry" />
        </mxCell>
        <mxCell id="zkfFHV4jXpPFQw0GAbJ--9" value="" style="line;html=1;strokeWidth=1;align=left;verticalAlign=middle;spacingTop=-1;spacingLeft=3;spacingRight=3;rotatable=0;labelPosition=right;points=[];portConstraint=eastwest;" parent="zkfFHV4jXpPFQw0GAbJ--6" vertex="1">
          <mxGeometry y="78" width="160" height="8" as="geometry" />
        </mxCell>
        <mxCell id="zkfFHV4jXpPFQw0GAbJ--10" value="Is Eligibale To Enroll" style="text;align=left;verticalAlign=top;spacingLeft=4;spacingRight=4;overflow=hidden;rotatable=0;points=[[0,0.5],[1,0.5]];portConstraint=eastwest;fontStyle=4" parent="zkfFHV4jXpPFQw0GAbJ--6" vertex="1">
          <mxGeometry y="86" width="160" height="26" as="geometry" />
        </mxCell>
        <mxCell id="zkfFHV4jXpPFQw0GAbJ--11" value="Get Seminars Taken" style="text;align=left;verticalAlign=top;spacingLeft=4;spacingRight=4;overflow=hidden;rotatable=0;points=[[0,0.5],[1,0.5]];portConstraint=eastwest;" parent="zkfFHV4jXpPFQw0GAbJ--6" vertex="1">
          <mxGeometry y="112" width="160" height="26" as="geometry" />
        </mxCell>
        <mxCell id="zkfFHV4jXpPFQw0GAbJ--12" value="" style="endArrow=block;endSize=10;endFill=0;shadow=0;strokeWidth=1;rounded=0;edgeStyle=elbowEdgeStyle;elbow=vertical;" parent="WIyWlLk6GJQsqaUBKTNV-1" source="zkfFHV4jXpPFQw0GAbJ--6" target="zkfFHV4jXpPFQw0GAbJ--0" edge="1">
          <mxGeometry width="160" relative="1" as="geometry">
            <mxPoint x="200" y="203" as="sourcePoint" />
            <mxPoint x="200" y="203" as="targetPoint" />
          </mxGeometry>
        </mxCell>
        <mxCell id="zkfFHV4jXpPFQw0GAbJ--13" value="Professor" style="swimlane;fontStyle=0;align=center;verticalAlign=top;childLayout=stackLayout;horizontal=1;startSize=26;horizontalStack=0;resizeParent=1;resizeLast=0;collapsible=1;marginBottom=0;rounded=0;shadow=0;strokeWidth=1;" parent="WIyWlLk6GJQsqaUBKTNV-1" vertex="1">
          <mxGeometry x="330" y="360" width="160" height="70" as="geometry">
            <mxRectangle x="340" y="380" width="170" height="26" as="alternateBounds" />
          </mxGeometry>
        </mxCell>
        <mxCell id="zkfFHV4jXpPFQw0GAbJ--14" value="Salary" style="text;align=left;verticalAlign=top;spacingLeft=4;spacingRight=4;overflow=hidden;rotatable=0;points=[[0,0.5],[1,0.5]];portConstraint=eastwest;" parent="zkfFHV4jXpPFQw0GAbJ--13" vertex="1">
          <mxGeometry y="26" width="160" height="26" as="geometry" />
        </mxCell>
        <mxCell id="zkfFHV4jXpPFQw0GAbJ--15" value="" style="line;html=1;strokeWidth=1;align=left;verticalAlign=middle;spacingTop=-1;spacingLeft=3;spacingRight=3;rotatable=0;labelPosition=right;points=[];portConstraint=eastwest;" parent="zkfFHV4jXpPFQw0GAbJ--13" vertex="1">
          <mxGeometry y="52" width="160" height="8" as="geometry" />
        </mxCell>
        <mxCell id="zkfFHV4jXpPFQw0GAbJ--16" value="" style="endArrow=block;endSize=10;endFill=0;shadow=0;strokeWidth=1;rounded=0;edgeStyle=elbowEdgeStyle;elbow=vertical;" parent="WIyWlLk6GJQsqaUBKTNV-1" source="zkfFHV4jXpPFQw0GAbJ--13" target="zkfFHV4jXpPFQw0GAbJ--0" edge="1">
          <mxGeometry width="160" relative="1" as="geometry">
            <mxPoint x="210" y="373" as="sourcePoint" />
            <mxPoint x="310" y="271" as="targetPoint" />
          </mxGeometry>
        </mxCell>
        <mxCell id="zkfFHV4jXpPFQw0GAbJ--17" value="Address" style="swimlane;fontStyle=0;align=center;verticalAlign=top;childLayout=stackLayout;horizontal=1;startSize=26;horizontalStack=0;resizeParent=1;resizeLast=0;collapsible=1;marginBottom=0;rounded=0;shadow=0;strokeWidth=1;" parent="WIyWlLk6GJQsqaUBKTNV-1" vertex="1">
          <mxGeometry x="508" y="120" width="160" height="216" as="geometry">
            <mxRectangle x="550" y="140" width="160" height="26" as="alternateBounds" />
          </mxGeometry>
        </mxCell>
        <mxCell id="zkfFHV4jXpPFQw0GAbJ--18" value="Street" style="text;align=left;verticalAlign=top;spacingLeft=4;spacingRight=4;overflow=hidden;rotatable=0;points=[[0,0.5],[1,0.5]];portConstraint=eastwest;" parent="zkfFHV4jXpPFQw0GAbJ--17" vertex="1">
          <mxGeometry y="26" width="160" height="26" as="geometry" />
        </mxCell>
        <mxCell id="zkfFHV4jXpPFQw0GAbJ--19" value="City" style="text;align=left;verticalAlign=top;spacingLeft=4;spacingRight=4;overflow=hidden;rotatable=0;points=[[0,0.5],[1,0.5]];portConstraint=eastwest;rounded=0;shadow=0;html=0;" parent="zkfFHV4jXpPFQw0GAbJ--17" vertex="1">
          <mxGeometry y="52" width="160" height="26" as="geometry" />
        </mxCell>
        <mxCell id="zkfFHV4jXpPFQw0GAbJ--20" value="State" style="text;align=left;verticalAlign=top;spacingLeft=4;spacingRight=4;overflow=hidden;rotatable=0;points=[[0,0.5],[1,0.5]];portConstraint=eastwest;rounded=0;shadow=0;html=0;" parent="zkfFHV4jXpPFQw0GAbJ--17" vertex="1">
          <mxGeometry y="78" width="160" height="26" as="geometry" />
        </mxCell>
        <mxCell id="zkfFHV4jXpPFQw0GAbJ--21" value="Postal Code" style="text;align=left;verticalAlign=top;spacingLeft=4;spacingRight=4;overflow=hidden;rotatable=0;points=[[0,0.5],[1,0.5]];portConstraint=eastwest;rounded=0;shadow=0;html=0;" parent="zkfFHV4jXpPFQw0GAbJ--17" vertex="1">
          <mxGeometry y="104" width="160" height="26" as="geometry" />
        </mxCell>
        <mxCell id="zkfFHV4jXpPFQw0GAbJ--22" value="Country" style="text;align=left;verticalAlign=top;spacingLeft=4;spacingRight=4;overflow=hidden;rotatable=0;points=[[0,0.5],[1,0.5]];portConstraint=eastwest;rounded=0;shadow=0;html=0;" parent="zkfFHV4jXpPFQw0GAbJ--17" vertex="1">
          <mxGeometry y="130" width="160" height="26" as="geometry" />
        </mxCell>
        <mxCell id="zkfFHV4jXpPFQw0GAbJ--23" value="" style="line;html=1;strokeWidth=1;align=left;verticalAlign=middle;spacingTop=-1;spacingLeft=3;spacingRight=3;rotatable=0;labelPosition=right;points=[];portConstraint=eastwest;" parent="zkfFHV4jXpPFQw0GAbJ--17" vertex="1">
          <mxGeometry y="156" width="160" height="8" as="geometry" />
        </mxCell>
        <mxCell id="zkfFHV4jXpPFQw0GAbJ--24" value="Validate" style="text;align=left;verticalAlign=top;spacingLeft=4;spacingRight=4;overflow=hidden;rotatable=0;points=[[0,0.5],[1,0.5]];portConstraint=eastwest;" parent="zkfFHV4jXpPFQw0GAbJ--17" vertex="1">
          <mxGeometry y="164" width="160" height="26" as="geometry" />
        </mxCell>
        <mxCell id="zkfFHV4jXpPFQw0GAbJ--25" value="Output As Label" style="text;align=left;verticalAlign=top;spacingLeft=4;spacingRight=4;overflow=hidden;rotatable=0;points=[[0,0.5],[1,0.5]];portConstraint=eastwest;" parent="zkfFHV4jXpPFQw0GAbJ--17" vertex="1">
          <mxGeometry y="190" width="160" height="26" as="geometry" />
        </mxCell>
        <mxCell id="zkfFHV4jXpPFQw0GAbJ--26" value="" style="endArrow=open;shadow=0;strokeWidth=1;rounded=0;endFill=1;edgeStyle=elbowEdgeStyle;elbow=vertical;" parent="WIyWlLk6GJQsqaUBKTNV-1" source="zkfFHV4jXpPFQw0GAbJ--0" target="zkfFHV4jXpPFQw0GAbJ--17" edge="1">
          <mxGeometry x="0.5" y="41" relative="1" as="geometry">
            <mxPoint x="380" y="192" as="sourcePoint" />
            <mxPoint x="540" y="192" as="targetPoint" />
            <mxPoint x="-40" y="32" as="offset" />
          </mxGeometry>
        </mxCell>
        <mxCell id="zkfFHV4jXpPFQw0GAbJ--27" value="0..1" style="resizable=0;align=left;verticalAlign=bottom;labelBackgroundColor=none;fontSize=12;" parent="zkfFHV4jXpPFQw0GAbJ--26" connectable="0" vertex="1">
          <mxGeometry x="-1" relative="1" as="geometry">
            <mxPoint y="4" as="offset" />
          </mxGeometry>
        </mxCell>
        <mxCell id="zkfFHV4jXpPFQw0GAbJ--28" value="1" style="resizable=0;align=right;verticalAlign=bottom;labelBackgroundColor=none;fontSize=12;" parent="zkfFHV4jXpPFQw0GAbJ--26" connectable="0" vertex="1">
          <mxGeometry x="1" relative="1" as="geometry">
            <mxPoint x="-7" y="4" as="offset" />
          </mxGeometry>
        </mxCell>
        <mxCell id="zkfFHV4jXpPFQw0GAbJ--29" value="lives at" style="text;html=1;resizable=0;points=[];;align=center;verticalAlign=middle;labelBackgroundColor=none;rounded=0;shadow=0;strokeWidth=1;fontSize=12;" parent="zkfFHV4jXpPFQw0GAbJ--26" vertex="1" connectable="0">
          <mxGeometry x="0.5" y="49" relative="1" as="geometry">
            <mxPoint x="-38" y="40" as="offset" />
          </mxGeometry>
        </mxCell>
      </root>
    </mxGraphModel>
  </diagram>
  <diagram name="第 2 页" id="-FJxNiROHmHIaSLD1Qb8">
    <mxGraphModel dx="2501" dy="1938" grid="1" gridSize="10" guides="1" tooltips="1" connect="1" arrows="1" fold="1" page="1" pageScale="1" pageWidth="827" pageHeight="1169" math="0" shadow="0">
      <root>
        <mxCell id="0" />
        <mxCell id="1" parent="0" />
        <mxCell id="HN9k-R7xMB0NnhEzvMOS-57" style="edgeStyle=orthogonalEdgeStyle;rounded=0;orthogonalLoop=1;jettySize=auto;html=1;exitX=0.5;exitY=1;exitDx=0;exitDy=0;entryX=0.5;entryY=0;entryDx=0;entryDy=0;" parent="1" source="pWubJdw5bSF0VqweUIWZ-18" target="6y6-rV257pjm5300Kcbu-6" edge="1">
          <mxGeometry relative="1" as="geometry" />
        </mxCell>
        <mxCell id="pWubJdw5bSF0VqweUIWZ-18" value="User&lt;br&gt;Instruction" style="ellipse;whiteSpace=wrap;html=1;" parent="1" vertex="1">
          <mxGeometry x="570" y="110" width="120" height="50" as="geometry" />
        </mxCell>
        <mxCell id="6y6-rV257pjm5300Kcbu-5" value="client" style="text;html=1;align=center;verticalAlign=middle;whiteSpace=wrap;rounded=0;" parent="1" vertex="1">
          <mxGeometry x="500" y="120" width="60" height="30" as="geometry" />
        </mxCell>
        <mxCell id="6y6-rV257pjm5300Kcbu-16" style="edgeStyle=orthogonalEdgeStyle;rounded=0;orthogonalLoop=1;jettySize=auto;html=1;exitX=0.5;exitY=1;exitDx=0;exitDy=0;entryX=0.5;entryY=0;entryDx=0;entryDy=0;" parent="1" source="6y6-rV257pjm5300Kcbu-6" target="6y6-rV257pjm5300Kcbu-8" edge="1">
          <mxGeometry relative="1" as="geometry" />
        </mxCell>
        <mxCell id="6y6-rV257pjm5300Kcbu-32" style="edgeStyle=orthogonalEdgeStyle;rounded=0;orthogonalLoop=1;jettySize=auto;html=1;exitX=0.5;exitY=1;exitDx=0;exitDy=0;entryX=0.5;entryY=0;entryDx=0;entryDy=0;" parent="1" source="6y6-rV257pjm5300Kcbu-6" target="6y6-rV257pjm5300Kcbu-10" edge="1">
          <mxGeometry relative="1" as="geometry" />
        </mxCell>
        <mxCell id="6y6-rV257pjm5300Kcbu-6" value="flask-server" style="ellipse;whiteSpace=wrap;html=1;" parent="1" vertex="1">
          <mxGeometry x="570" y="200" width="120" height="50" as="geometry" />
        </mxCell>
        <mxCell id="6y6-rV257pjm5300Kcbu-7" value="&lt;h1 style=&quot;text-align: left; margin-top: 0px;&quot;&gt;&lt;span style=&quot;background-color: initial; font-size: 12px; font-weight: normal;&quot;&gt;pos: ./server.py&lt;/span&gt;&lt;br&gt;&lt;/h1&gt;&lt;p style=&quot;text-align: left;&quot;&gt;url = &quot;&lt;span style=&quot;font-family: &amp;quot;JetBrains Mono&amp;quot;, monospace; font-size: 9.8pt; background-color: rgb(255, 255, 255);&quot;&gt;/api/copilot/chat&quot;&lt;/span&gt;&lt;/p&gt;" style="text;html=1;align=center;verticalAlign=middle;whiteSpace=wrap;rounded=0;" parent="1" vertex="1">
          <mxGeometry x="700" y="150" width="180" height="100" as="geometry" />
        </mxCell>
        <mxCell id="6y6-rV257pjm5300Kcbu-30" style="edgeStyle=orthogonalEdgeStyle;rounded=0;orthogonalLoop=1;jettySize=auto;html=1;exitX=0.5;exitY=1;exitDx=0;exitDy=0;entryX=0.5;entryY=0;entryDx=0;entryDy=0;" parent="1" source="6y6-rV257pjm5300Kcbu-8" target="6y6-rV257pjm5300Kcbu-24" edge="1">
          <mxGeometry relative="1" as="geometry" />
        </mxCell>
        <mxCell id="6y6-rV257pjm5300Kcbu-8" value="create copilot chat" style="ellipse;whiteSpace=wrap;html=1;" parent="1" vertex="1">
          <mxGeometry x="200" y="330" width="120" height="50" as="geometry" />
        </mxCell>
        <mxCell id="6y6-rV257pjm5300Kcbu-9" value="&lt;h1 style=&quot;text-align: left; margin-top: 0px;&quot;&gt;&lt;span style=&quot;background-color: initial; font-size: 12px; font-weight: normal;&quot;&gt;pos: ./server.py-&amp;gt;line182&lt;/span&gt;&lt;br&gt;&lt;/h1&gt;&lt;p style=&quot;text-align: left;&quot;&gt;as user first use, create a copilot-chatbot for each user.&amp;nbsp;&lt;/p&gt;" style="text;html=1;align=center;verticalAlign=middle;whiteSpace=wrap;rounded=0;" parent="1" vertex="1">
          <mxGeometry x="80" y="240" width="210" height="100" as="geometry" />
        </mxCell>
        <mxCell id="HN9k-R7xMB0NnhEzvMOS-47" style="edgeStyle=orthogonalEdgeStyle;rounded=0;orthogonalLoop=1;jettySize=auto;html=1;exitX=0.5;exitY=1;exitDx=0;exitDy=0;entryX=0.5;entryY=0;entryDx=0;entryDy=0;" parent="1" source="6y6-rV257pjm5300Kcbu-10" target="6y6-rV257pjm5300Kcbu-33" edge="1">
          <mxGeometry relative="1" as="geometry">
            <mxPoint x="830" y="450" as="targetPoint" />
          </mxGeometry>
        </mxCell>
        <mxCell id="HN9k-R7xMB0NnhEzvMOS-50" style="edgeStyle=orthogonalEdgeStyle;rounded=0;orthogonalLoop=1;jettySize=auto;html=1;exitX=0.5;exitY=1;exitDx=0;exitDy=0;entryX=0.5;entryY=0;entryDx=0;entryDy=0;" parent="1" source="6y6-rV257pjm5300Kcbu-10" target="HN9k-R7xMB0NnhEzvMOS-19" edge="1">
          <mxGeometry relative="1" as="geometry" />
        </mxCell>
        <mxCell id="6y6-rV257pjm5300Kcbu-10" value="execute_chat" style="ellipse;whiteSpace=wrap;html=1;" parent="1" vertex="1">
          <mxGeometry x="930" y="330" width="120" height="50" as="geometry" />
        </mxCell>
        <mxCell id="6y6-rV257pjm5300Kcbu-17" value="sever status=0" style="text;html=1;align=center;verticalAlign=middle;whiteSpace=wrap;rounded=0;" parent="1" vertex="1">
          <mxGeometry x="414" y="250" width="110" height="30" as="geometry" />
        </mxCell>
        <mxCell id="6y6-rV257pjm5300Kcbu-19" value="" style="group" parent="1" vertex="1" connectable="0">
          <mxGeometry y="-190" width="440" height="410" as="geometry" />
        </mxCell>
        <mxCell id="6y6-rV257pjm5300Kcbu-14" value="" style="rounded=1;whiteSpace=wrap;html=1;" parent="6y6-rV257pjm5300Kcbu-19" vertex="1">
          <mxGeometry width="440" height="370" as="geometry" />
        </mxCell>
        <mxCell id="6y6-rV257pjm5300Kcbu-15" value="&lt;h1 style=&quot;margin-top: 0px;&quot;&gt;Initialize the &lt;span style=&quot;background-color: initial;&quot;&gt;Chatbot&lt;/span&gt;&lt;/h1&gt;&lt;h1 style=&quot;margin-top: 0px;&quot;&gt;&lt;span style=&quot;background-color: initial; font-size: 12px; font-weight: normal;&quot;&gt;1）TD-prompt: task detect prompt.(chatbot.py/line67)&lt;/span&gt;&lt;/h1&gt;&lt;div&gt;&lt;span style=&quot;background-color: initial; font-size: 12px; font-weight: normal;&quot;&gt;&amp;nbsp; &amp;nbsp; &amp;nbsp; file pos:&lt;/span&gt;&lt;span style=&quot;font-family: &amp;quot;Helvetica Neue&amp;quot;; font-size: 13px; background-color: initial;&quot;&gt;prompt/task_detection_layer_prompt.txt&lt;/span&gt;&lt;/div&gt;&lt;div&gt;&lt;span style=&quot;font-family: &amp;quot;Helvetica Neue&amp;quot;; font-size: 13px;&quot;&gt;&amp;nbsp; &amp;nbsp; &amp;nbsp; &amp;nbsp; &amp;nbsp; &amp;nbsp; &amp;nbsp; &amp;nbsp; &amp;nbsp;prompt/task_detection_layer_few_shots.txt&lt;/span&gt;&lt;span style=&quot;font-family: &amp;quot;Helvetica Neue&amp;quot;; font-size: 13px; background-color: initial;&quot;&gt;&lt;br&gt;&lt;/span&gt;&lt;/div&gt;&lt;div&gt;&lt;span style=&quot;font-family: &amp;quot;Helvetica Neue&amp;quot;; font-size: 13px; background-color: initial;&quot;&gt;&lt;br&gt;&lt;/span&gt;&lt;/div&gt;&lt;h1 style=&quot;margin-top: 0px;&quot;&gt;&lt;span style=&quot;background-color: initial; font-size: 12px; font-weight: normal;&quot;&gt;2) chat-prompt: not task ,&amp;nbsp;&lt;/span&gt;&lt;span style=&quot;font-size: 12px; font-weight: 400;&quot;&gt;Chat with users.(chatbot.py/line60)&lt;/span&gt;&lt;/h1&gt;&lt;div&gt;&lt;span style=&quot;background-color: initial;&quot;&gt;&amp;nbsp; &amp;nbsp; &amp;nbsp; file pos:&lt;/span&gt;&lt;span style=&quot;background-color: initial; font-family: &amp;quot;Helvetica Neue&amp;quot;; font-size: 13px;&quot;&gt;prompt_config/&lt;/span&gt;&lt;span style=&quot;font-family: &amp;quot;Helvetica Neue&amp;quot;; font-size: 13px;&quot;&gt;prompt_config&lt;/span&gt;&lt;span style=&quot;background-color: initial; font-family: &amp;quot;Helvetica Neue&amp;quot;; font-size: 13px;&quot;&gt;.py/line8&lt;/span&gt;&lt;span style=&quot;font-size: 12px; font-weight: 400;&quot;&gt;&lt;br&gt;&lt;/span&gt;&lt;/div&gt;&lt;div&gt;&lt;span style=&quot;background-color: initial; font-family: &amp;quot;Helvetica Neue&amp;quot;; font-size: 13px;&quot;&gt;&lt;br&gt;&lt;/span&gt;&lt;/div&gt;&lt;h1 style=&quot;margin-top: 0px;&quot;&gt;&lt;span style=&quot;background-color: initial; font-size: 12px; font-weight: normal;&quot;&gt;3) system-prompt: code generation layer&lt;/span&gt;&lt;span style=&quot;background-color: initial; font-size: 12px; font-weight: 400;&quot;&gt;.(chatbot.py/line144)&lt;/span&gt;&lt;span style=&quot;background-color: initial; font-size: 12px; font-weight: normal;&quot;&gt;&amp;nbsp;&lt;/span&gt;&lt;/h1&gt;&lt;h1 style=&quot;margin-top: 0px;&quot;&gt;&lt;span style=&quot;background-color: initial; font-size: 12px; font-weight: normal;&quot;&gt;&amp;nbsp; &amp;nbsp; &amp;nbsp; file pos:&lt;/span&gt;&lt;span style=&quot;background-color: initial; font-weight: normal; font-family: &amp;quot;Helvetica Neue&amp;quot;; font-size: 13px;&quot;&gt;promp/code_generation_layer_prompt.txt&lt;/span&gt;&amp;nbsp;&lt;/h1&gt;&lt;div&gt;&lt;span style=&quot;font-family: &amp;quot;Helvetica Neue&amp;quot;; font-size: 13px;&quot;&gt;&amp;nbsp; &amp;nbsp; &amp;nbsp; &amp;nbsp; &amp;nbsp; &amp;nbsp; &amp;nbsp; &amp;nbsp; &amp;nbsp;prompt/&lt;/span&gt;&lt;span style=&quot;background-color: initial; font-family: &amp;quot;Helvetica Neue&amp;quot;; font-size: 13px;&quot;&gt;code_generation_layer_prompt_with_.. shot&lt;/span&gt;&lt;span style=&quot;font-family: &amp;quot;Helvetica Neue&amp;quot;; font-size: 13px;&quot;&gt;.txt&lt;/span&gt;&lt;br&gt;&lt;/div&gt;" style="text;html=1;whiteSpace=wrap;overflow=hidden;rounded=0;" parent="6y6-rV257pjm5300Kcbu-19" vertex="1">
          <mxGeometry x="30" y="10" width="400" height="400" as="geometry" />
        </mxCell>
        <mxCell id="6y6-rV257pjm5300Kcbu-20" value="sever status=1" style="text;html=1;align=center;verticalAlign=middle;whiteSpace=wrap;rounded=0;" parent="1" vertex="1">
          <mxGeometry x="780" y="250" width="110" height="30" as="geometry" />
        </mxCell>
        <mxCell id="6y6-rV257pjm5300Kcbu-21" value="client" style="ellipse;whiteSpace=wrap;html=1;" parent="1" vertex="1">
          <mxGeometry x="200" y="500" width="120" height="50" as="geometry" />
        </mxCell>
        <mxCell id="6y6-rV257pjm5300Kcbu-23" value="&lt;h1 style=&quot;text-align: left; margin-top: 0px;&quot;&gt;&lt;span style=&quot;background-color: initial; font-size: 12px; font-weight: normal;&quot;&gt;pos: ./server.py/line203&lt;/span&gt;&lt;br&gt;&lt;/h1&gt;&lt;p style=&quot;text-align: left;&quot;&gt;start talk to chatbot.&lt;/p&gt;" style="text;html=1;align=center;verticalAlign=middle;whiteSpace=wrap;rounded=0;" parent="1" vertex="1">
          <mxGeometry x="1061" y="290" width="180" height="100" as="geometry" />
        </mxCell>
        <mxCell id="6y6-rV257pjm5300Kcbu-28" style="edgeStyle=orthogonalEdgeStyle;rounded=0;orthogonalLoop=1;jettySize=auto;html=1;exitX=0.5;exitY=1;exitDx=0;exitDy=0;entryX=0.5;entryY=0;entryDx=0;entryDy=0;" parent="1" source="6y6-rV257pjm5300Kcbu-24" target="6y6-rV257pjm5300Kcbu-21" edge="1">
          <mxGeometry relative="1" as="geometry" />
        </mxCell>
        <mxCell id="6y6-rV257pjm5300Kcbu-24" value="output fromat" style="ellipse;whiteSpace=wrap;html=1;" parent="1" vertex="1">
          <mxGeometry x="200" y="410" width="120" height="50" as="geometry" />
        </mxCell>
        <mxCell id="6y6-rV257pjm5300Kcbu-25" value="&lt;h1 style=&quot;text-align: left; margin-top: 0px;&quot;&gt;&lt;span style=&quot;background-color: initial; font-size: 12px; font-weight: normal;&quot;&gt;pos: ./server.py/line188&lt;/span&gt;&lt;br&gt;&lt;/h1&gt;&lt;p style=&quot;text-align: left;&quot;&gt;user output-format prompt to format server response.&lt;/p&gt;" style="text;html=1;align=center;verticalAlign=middle;whiteSpace=wrap;rounded=0;" parent="1" vertex="1">
          <mxGeometry x="-10" y="390" width="180" height="100" as="geometry" />
        </mxCell>
        <mxCell id="6y6-rV257pjm5300Kcbu-29" value="format response" style="text;html=1;align=center;verticalAlign=middle;whiteSpace=wrap;rounded=0;" parent="1" vertex="1">
          <mxGeometry x="150" y="460" width="110" height="30" as="geometry" />
        </mxCell>
        <mxCell id="6y6-rV257pjm5300Kcbu-31" value="response" style="text;html=1;align=center;verticalAlign=middle;whiteSpace=wrap;rounded=0;" parent="1" vertex="1">
          <mxGeometry x="150" y="380" width="110" height="30" as="geometry" />
        </mxCell>
        <mxCell id="HN9k-R7xMB0NnhEzvMOS-58" style="edgeStyle=orthogonalEdgeStyle;rounded=0;orthogonalLoop=1;jettySize=auto;html=1;exitX=0.5;exitY=1;exitDx=0;exitDy=0;entryX=0.5;entryY=0;entryDx=0;entryDy=0;" parent="1" source="6y6-rV257pjm5300Kcbu-33" target="HN9k-R7xMB0NnhEzvMOS-3" edge="1">
          <mxGeometry relative="1" as="geometry" />
        </mxCell>
        <mxCell id="HN9k-R7xMB0NnhEzvMOS-59" style="edgeStyle=orthogonalEdgeStyle;rounded=0;orthogonalLoop=1;jettySize=auto;html=1;exitX=0.5;exitY=1;exitDx=0;exitDy=0;entryX=0.5;entryY=0;entryDx=0;entryDy=0;" parent="1" source="6y6-rV257pjm5300Kcbu-33" target="HN9k-R7xMB0NnhEzvMOS-2" edge="1">
          <mxGeometry relative="1" as="geometry" />
        </mxCell>
        <mxCell id="6y6-rV257pjm5300Kcbu-33" value="task detection" style="ellipse;whiteSpace=wrap;html=1;" parent="1" vertex="1">
          <mxGeometry x="690" y="465" width="120" height="50" as="geometry" />
        </mxCell>
        <mxCell id="6y6-rV257pjm5300Kcbu-34" value="chatbot status=0" style="text;html=1;align=center;verticalAlign=middle;whiteSpace=wrap;rounded=0;" parent="1" vertex="1">
          <mxGeometry x="820" y="385" width="110" height="30" as="geometry" />
        </mxCell>
        <mxCell id="HN9k-R7xMB0NnhEzvMOS-1" value="&lt;h1 style=&quot;margin-top: 0px;&quot;&gt;&lt;span style=&quot;background-color: initial; font-size: 12px; font-weight: normal;&quot;&gt;pos: Chatbot.py/line103&lt;/span&gt;&lt;/h1&gt;&lt;div&gt;&lt;span style=&quot;background-color: initial; font-size: 12px; font-weight: normal;&quot;&gt;if not a task ,start chat with user.&lt;/span&gt;&lt;/div&gt;&lt;div&gt;&lt;span style=&quot;background-color: initial;&quot;&gt;if feasible task, start code-generation.&lt;/span&gt;&lt;/div&gt;" style="text;html=1;align=left;verticalAlign=middle;whiteSpace=wrap;rounded=0;" parent="1" vertex="1">
          <mxGeometry x="470" y="410" width="210" height="100" as="geometry" />
        </mxCell>
        <mxCell id="HN9k-R7xMB0NnhEzvMOS-60" style="edgeStyle=orthogonalEdgeStyle;rounded=0;orthogonalLoop=1;jettySize=auto;html=1;exitX=1;exitY=0.5;exitDx=0;exitDy=0;entryX=0;entryY=0.5;entryDx=0;entryDy=0;" parent="1" source="HN9k-R7xMB0NnhEzvMOS-2" target="HN9k-R7xMB0NnhEzvMOS-19" edge="1">
          <mxGeometry relative="1" as="geometry" />
        </mxCell>
        <mxCell id="HN9k-R7xMB0NnhEzvMOS-2" value="feasible task" style="ellipse;whiteSpace=wrap;html=1;" parent="1" vertex="1">
          <mxGeometry x="770" y="550" width="120" height="50" as="geometry" />
        </mxCell>
        <mxCell id="HN9k-R7xMB0NnhEzvMOS-3" value="chat" style="ellipse;whiteSpace=wrap;html=1;" parent="1" vertex="1">
          <mxGeometry x="610" y="550" width="120" height="50" as="geometry" />
        </mxCell>
        <mxCell id="HN9k-R7xMB0NnhEzvMOS-4" value="&lt;h1 style=&quot;text-align: left; margin-top: 0px;&quot;&gt;&lt;span style=&quot;background-color: initial; font-size: 12px; font-weight: normal;&quot;&gt;line133&lt;/span&gt;&lt;/h1&gt;" style="text;html=1;align=center;verticalAlign=middle;whiteSpace=wrap;rounded=0;" parent="1" vertex="1">
          <mxGeometry x="870" y="600" width="70" height="30" as="geometry" />
        </mxCell>
        <mxCell id="HN9k-R7xMB0NnhEzvMOS-12" value="&lt;h1 style=&quot;text-align: left; margin-top: 0px;&quot;&gt;&lt;span style=&quot;background-color: initial; font-size: 12px; font-weight: normal;&quot;&gt;line163&lt;/span&gt;&lt;/h1&gt;" style="text;html=1;align=center;verticalAlign=middle;whiteSpace=wrap;rounded=0;" parent="1" vertex="1">
          <mxGeometry x="540" y="560" width="70" height="30" as="geometry" />
        </mxCell>
        <mxCell id="HN9k-R7xMB0NnhEzvMOS-64" style="edgeStyle=orthogonalEdgeStyle;rounded=0;orthogonalLoop=1;jettySize=auto;html=1;exitX=0.5;exitY=1;exitDx=0;exitDy=0;entryX=0.5;entryY=0;entryDx=0;entryDy=0;" parent="1" source="HN9k-R7xMB0NnhEzvMOS-23" target="HN9k-R7xMB0NnhEzvMOS-37" edge="1">
          <mxGeometry relative="1" as="geometry" />
        </mxCell>
        <mxCell id="HN9k-R7xMB0NnhEzvMOS-23" value="as a user" style="ellipse;whiteSpace=wrap;html=1;" parent="1" vertex="1">
          <mxGeometry x="1133" y="720" width="120" height="50" as="geometry" />
        </mxCell>
        <mxCell id="HN9k-R7xMB0NnhEzvMOS-24" value="&lt;h1 style=&quot;text-align: left; margin-top: 0px;&quot;&gt;&lt;span style=&quot;background-color: initial; font-size: 12px; font-weight: normal;&quot;&gt;pos: Chatbot.py/line223&lt;/span&gt;&lt;/h1&gt;" style="text;html=1;align=center;verticalAlign=middle;whiteSpace=wrap;rounded=0;" parent="1" vertex="1">
          <mxGeometry x="972" y="730" width="160" height="30" as="geometry" />
        </mxCell>
        <mxCell id="HN9k-R7xMB0NnhEzvMOS-66" style="edgeStyle=orthogonalEdgeStyle;rounded=0;orthogonalLoop=1;jettySize=auto;html=1;exitX=0.5;exitY=1;exitDx=0;exitDy=0;entryX=0.5;entryY=0;entryDx=0;entryDy=0;" parent="1" source="HN9k-R7xMB0NnhEzvMOS-25" target="HN9k-R7xMB0NnhEzvMOS-28" edge="1">
          <mxGeometry relative="1" as="geometry" />
        </mxCell>
        <mxCell id="HN9k-R7xMB0NnhEzvMOS-25" value="as gcc platform" style="ellipse;whiteSpace=wrap;html=1;" parent="1" vertex="1">
          <mxGeometry x="1331" y="720" width="120" height="50" as="geometry" />
        </mxCell>
        <mxCell id="HN9k-R7xMB0NnhEzvMOS-26" value="&lt;h1 style=&quot;text-align: left; margin-top: 0px;&quot;&gt;&lt;span style=&quot;background-color: initial; font-size: 12px; font-weight: normal;&quot;&gt;pos: Chatbot.py/line197&lt;/span&gt;&lt;/h1&gt;" style="text;html=1;align=center;verticalAlign=middle;whiteSpace=wrap;rounded=0;" parent="1" vertex="1">
          <mxGeometry x="1461" y="730" width="160" height="30" as="geometry" />
        </mxCell>
        <mxCell id="HN9k-R7xMB0NnhEzvMOS-68" style="edgeStyle=orthogonalEdgeStyle;rounded=0;orthogonalLoop=1;jettySize=auto;html=1;exitX=0.5;exitY=1;exitDx=0;exitDy=0;entryX=0.5;entryY=0;entryDx=0;entryDy=0;" parent="1" source="HN9k-R7xMB0NnhEzvMOS-27" target="HN9k-R7xMB0NnhEzvMOS-31" edge="1">
          <mxGeometry relative="1" as="geometry" />
        </mxCell>
        <mxCell id="HN9k-R7xMB0NnhEzvMOS-27" value="call gcc api" style="ellipse;whiteSpace=wrap;html=1;" parent="1" vertex="1">
          <mxGeometry x="1331" y="890" width="120" height="50" as="geometry" />
        </mxCell>
        <mxCell id="HN9k-R7xMB0NnhEzvMOS-67" style="edgeStyle=orthogonalEdgeStyle;rounded=0;orthogonalLoop=1;jettySize=auto;html=1;exitX=0.5;exitY=1;exitDx=0;exitDy=0;entryX=0.5;entryY=0;entryDx=0;entryDy=0;" parent="1" source="HN9k-R7xMB0NnhEzvMOS-28" target="HN9k-R7xMB0NnhEzvMOS-27" edge="1">
          <mxGeometry relative="1" as="geometry" />
        </mxCell>
        <mxCell id="HN9k-R7xMB0NnhEzvMOS-28" value="generate function" style="ellipse;whiteSpace=wrap;html=1;" parent="1" vertex="1">
          <mxGeometry x="1331" y="800" width="120" height="50" as="geometry" />
        </mxCell>
        <mxCell id="HN9k-R7xMB0NnhEzvMOS-29" value="&lt;h1 style=&quot;text-align: left; margin-top: 0px;&quot;&gt;&lt;span style=&quot;background-color: initial; font-size: 12px; font-weight: normal;&quot;&gt;pos: Chatbot.py/line202&lt;/span&gt;&lt;/h1&gt;" style="text;html=1;align=center;verticalAlign=middle;whiteSpace=wrap;rounded=0;" parent="1" vertex="1">
          <mxGeometry x="1461" y="810" width="160" height="30" as="geometry" />
        </mxCell>
        <mxCell id="HN9k-R7xMB0NnhEzvMOS-30" value="&lt;h1 style=&quot;text-align: left; margin-top: 0px;&quot;&gt;&lt;span style=&quot;background-color: initial; font-size: 12px; font-weight: normal;&quot;&gt;pos: Chatbot.py/line204&lt;/span&gt;&lt;/h1&gt;&lt;h1 style=&quot;text-align: left; margin-top: 0px;&quot;&gt;&lt;span style=&quot;background-color: initial; font-size: 12px; font-weight: normal;&quot;&gt;to call the gcc api,two scripts include:API/helper_api.py, API/user_api.py&lt;/span&gt;&amp;nbsp;&lt;/h1&gt;" style="text;html=1;align=center;verticalAlign=middle;whiteSpace=wrap;rounded=0;" parent="1" vertex="1">
          <mxGeometry x="1461" y="860" width="410" height="120" as="geometry" />
        </mxCell>
        <mxCell id="HN9k-R7xMB0NnhEzvMOS-76" style="edgeStyle=orthogonalEdgeStyle;rounded=0;orthogonalLoop=1;jettySize=auto;html=1;exitX=0.5;exitY=1;exitDx=0;exitDy=0;entryX=0.5;entryY=0;entryDx=0;entryDy=0;" parent="1" source="HN9k-R7xMB0NnhEzvMOS-31" target="HN9k-R7xMB0NnhEzvMOS-72" edge="1">
          <mxGeometry relative="1" as="geometry" />
        </mxCell>
        <mxCell id="HN9k-R7xMB0NnhEzvMOS-31" value="api-response to chatbot" style="ellipse;whiteSpace=wrap;html=1;" parent="1" vertex="1">
          <mxGeometry x="1331" y="980" width="120" height="50" as="geometry" />
        </mxCell>
        <mxCell id="HN9k-R7xMB0NnhEzvMOS-32" value="&lt;h1 style=&quot;text-align: left; margin-top: 0px;&quot;&gt;&lt;span style=&quot;background-color: initial; font-size: 12px; font-weight: normal;&quot;&gt;pos: Chatbot.py/line213&lt;/span&gt;&lt;/h1&gt;" style="text;html=1;align=center;verticalAlign=middle;whiteSpace=wrap;rounded=0;" parent="1" vertex="1">
          <mxGeometry x="1461" y="980" width="150" height="50" as="geometry" />
        </mxCell>
        <mxCell id="HN9k-R7xMB0NnhEzvMOS-77" style="edgeStyle=orthogonalEdgeStyle;rounded=0;orthogonalLoop=1;jettySize=auto;html=1;exitX=0.5;exitY=1;exitDx=0;exitDy=0;entryX=0.5;entryY=0;entryDx=0;entryDy=0;" parent="1" target="HN9k-R7xMB0NnhEzvMOS-72" edge="1">
          <mxGeometry relative="1" as="geometry">
            <mxPoint x="1193" y="855" as="sourcePoint" />
            <mxPoint x="1300.0000000000005" y="1105.0000000000005" as="targetPoint" />
            <Array as="points">
              <mxPoint x="1193" y="1065" />
              <mxPoint x="1300" y="1065" />
            </Array>
          </mxGeometry>
        </mxCell>
        <mxCell id="HN9k-R7xMB0NnhEzvMOS-37" value="chat with chatbot" style="ellipse;whiteSpace=wrap;html=1;" parent="1" vertex="1">
          <mxGeometry x="1133" y="800" width="120" height="50" as="geometry" />
        </mxCell>
        <mxCell id="HN9k-R7xMB0NnhEzvMOS-38" value="&lt;h1 style=&quot;text-align: left; margin-top: 0px;&quot;&gt;&lt;span style=&quot;background-color: initial; font-size: 12px; font-weight: normal;&quot;&gt;pos: Chatbot.py/line163&lt;/span&gt;&lt;/h1&gt;" style="text;html=1;align=center;verticalAlign=middle;whiteSpace=wrap;rounded=0;" parent="1" vertex="1">
          <mxGeometry x="972" y="810" width="160" height="30" as="geometry" />
        </mxCell>
        <mxCell id="HN9k-R7xMB0NnhEzvMOS-46" value="" style="group" parent="1" vertex="1" connectable="0">
          <mxGeometry x="1090" y="540" width="700" height="130" as="geometry" />
        </mxCell>
        <mxCell id="HN9k-R7xMB0NnhEzvMOS-40" value="" style="rounded=1;whiteSpace=wrap;html=1;" parent="HN9k-R7xMB0NnhEzvMOS-46" vertex="1">
          <mxGeometry x="4" y="10" width="396" height="120" as="geometry" />
        </mxCell>
        <mxCell id="HN9k-R7xMB0NnhEzvMOS-41" value="create a job" style="ellipse;whiteSpace=wrap;html=1;" parent="HN9k-R7xMB0NnhEzvMOS-46" vertex="1">
          <mxGeometry x="10" y="45" width="120" height="50" as="geometry" />
        </mxCell>
        <mxCell id="HN9k-R7xMB0NnhEzvMOS-42" value="&lt;h1 style=&quot;text-align: left; margin-top: 0px;&quot;&gt;&lt;span style=&quot;background-color: initial; font-size: 12px; font-weight: normal;&quot;&gt;task type detection&lt;/span&gt;&lt;/h1&gt;" style="text;html=1;align=center;verticalAlign=middle;whiteSpace=wrap;rounded=0;" parent="HN9k-R7xMB0NnhEzvMOS-46" vertex="1">
          <mxGeometry y="15" width="130" height="30" as="geometry" />
        </mxCell>
        <mxCell id="HN9k-R7xMB0NnhEzvMOS-43" value="kick-off a job" style="ellipse;whiteSpace=wrap;html=1;" parent="HN9k-R7xMB0NnhEzvMOS-46" vertex="1">
          <mxGeometry x="140" y="45" width="120" height="50" as="geometry" />
        </mxCell>
        <mxCell id="HN9k-R7xMB0NnhEzvMOS-44" value="schedule a job" style="ellipse;whiteSpace=wrap;html=1;" parent="HN9k-R7xMB0NnhEzvMOS-46" vertex="1">
          <mxGeometry x="270" y="45" width="120" height="50" as="geometry" />
        </mxCell>
        <mxCell id="HN9k-R7xMB0NnhEzvMOS-45" value="&lt;h1 style=&quot;text-align: left; margin-top: 0px;&quot;&gt;&lt;span style=&quot;background-color: initial; font-size: 12px; font-weight: normal;&quot;&gt;pos: Chatbot.py/line121&lt;/span&gt;&lt;/h1&gt;&lt;div style=&quot;text-align: left;&quot;&gt;&lt;span style=&quot;background-color: initial;&quot;&gt;if the job is in API_doc ,choose the job prompt,&lt;/span&gt;&lt;/div&gt;&lt;div style=&quot;text-align: left;&quot;&gt;the job prompt&amp;nbsp; initialize, which you can choose from the following files:prompt_config/prompt_api.py&lt;/div&gt;" style="text;html=1;align=center;verticalAlign=middle;whiteSpace=wrap;rounded=0;" parent="HN9k-R7xMB0NnhEzvMOS-46" vertex="1">
          <mxGeometry x="410" width="290" height="115" as="geometry" />
        </mxCell>
        <mxCell id="HN9k-R7xMB0NnhEzvMOS-61" style="edgeStyle=orthogonalEdgeStyle;rounded=0;orthogonalLoop=1;jettySize=auto;html=1;exitX=0.5;exitY=1;exitDx=0;exitDy=0;" parent="1" source="HN9k-R7xMB0NnhEzvMOS-19" edge="1">
          <mxGeometry relative="1" as="geometry">
            <mxPoint x="1290" y="550" as="targetPoint" />
          </mxGeometry>
        </mxCell>
        <mxCell id="HN9k-R7xMB0NnhEzvMOS-19" value="task generation" style="ellipse;whiteSpace=wrap;html=1;" parent="1" vertex="1">
          <mxGeometry x="1230" y="465" width="120" height="50" as="geometry" />
        </mxCell>
        <mxCell id="HN9k-R7xMB0NnhEzvMOS-20" value="chatbot status=1" style="text;html=1;align=center;verticalAlign=middle;whiteSpace=wrap;rounded=0;" parent="1" vertex="1">
          <mxGeometry x="1096" y="385" width="110" height="30" as="geometry" />
        </mxCell>
        <mxCell id="HN9k-R7xMB0NnhEzvMOS-21" value="&lt;h1 style=&quot;text-align: left; margin-top: 0px;&quot;&gt;&lt;span style=&quot;background-color: initial; font-size: 12px; font-weight: normal;&quot;&gt;pos: Chatbot.py/line190&lt;/span&gt;&lt;br&gt;&lt;/h1&gt;&lt;div style=&quot;text-align: left;&quot;&gt;&lt;span style=&quot;background-color: initial;&quot;&gt;as a user&amp;nbsp; ,ask the user to provide valid parameters.&lt;/span&gt;&lt;/div&gt;&lt;div style=&quot;text-align: left;&quot;&gt;&lt;span style=&quot;background-color: initial;&quot;&gt;as a gcc , send function to gcc platform.&lt;/span&gt;&lt;/div&gt;" style="text;html=1;align=center;verticalAlign=middle;whiteSpace=wrap;rounded=0;" parent="1" vertex="1">
          <mxGeometry x="1400" y="410" width="290" height="100" as="geometry" />
        </mxCell>
        <mxCell id="HN9k-R7xMB0NnhEzvMOS-51" style="edgeStyle=orthogonalEdgeStyle;rounded=0;orthogonalLoop=1;jettySize=auto;html=1;exitX=0.5;exitY=1;exitDx=0;exitDy=0;entryX=0.5;entryY=0;entryDx=0;entryDy=0;" parent="1" target="HN9k-R7xMB0NnhEzvMOS-54" edge="1">
          <mxGeometry relative="1" as="geometry">
            <mxPoint x="670" y="600" as="sourcePoint" />
          </mxGeometry>
        </mxCell>
        <mxCell id="HN9k-R7xMB0NnhEzvMOS-52" value="client" style="ellipse;whiteSpace=wrap;html=1;" parent="1" vertex="1">
          <mxGeometry x="610" y="720" width="120" height="50" as="geometry" />
        </mxCell>
        <mxCell id="HN9k-R7xMB0NnhEzvMOS-53" style="edgeStyle=orthogonalEdgeStyle;rounded=0;orthogonalLoop=1;jettySize=auto;html=1;exitX=0.5;exitY=1;exitDx=0;exitDy=0;entryX=0.5;entryY=0;entryDx=0;entryDy=0;" parent="1" source="HN9k-R7xMB0NnhEzvMOS-54" target="HN9k-R7xMB0NnhEzvMOS-52" edge="1">
          <mxGeometry relative="1" as="geometry" />
        </mxCell>
        <mxCell id="HN9k-R7xMB0NnhEzvMOS-54" value="output fromat" style="ellipse;whiteSpace=wrap;html=1;" parent="1" vertex="1">
          <mxGeometry x="610" y="630" width="120" height="50" as="geometry" />
        </mxCell>
        <mxCell id="HN9k-R7xMB0NnhEzvMOS-55" value="format response" style="text;html=1;align=center;verticalAlign=middle;whiteSpace=wrap;rounded=0;" parent="1" vertex="1">
          <mxGeometry x="560" y="680" width="110" height="30" as="geometry" />
        </mxCell>
        <mxCell id="HN9k-R7xMB0NnhEzvMOS-56" value="response" style="text;html=1;align=center;verticalAlign=middle;whiteSpace=wrap;rounded=0;" parent="1" vertex="1">
          <mxGeometry x="560" y="600" width="110" height="30" as="geometry" />
        </mxCell>
        <mxCell id="HN9k-R7xMB0NnhEzvMOS-63" style="edgeStyle=orthogonalEdgeStyle;rounded=0;orthogonalLoop=1;jettySize=auto;html=1;exitX=0.25;exitY=1;exitDx=0;exitDy=0;entryX=0.5;entryY=0;entryDx=0;entryDy=0;" parent="1" source="HN9k-R7xMB0NnhEzvMOS-40" target="HN9k-R7xMB0NnhEzvMOS-23" edge="1">
          <mxGeometry relative="1" as="geometry" />
        </mxCell>
        <mxCell id="HN9k-R7xMB0NnhEzvMOS-65" style="edgeStyle=orthogonalEdgeStyle;rounded=0;orthogonalLoop=1;jettySize=auto;html=1;exitX=0.75;exitY=1;exitDx=0;exitDy=0;entryX=0.5;entryY=0;entryDx=0;entryDy=0;" parent="1" source="HN9k-R7xMB0NnhEzvMOS-40" target="HN9k-R7xMB0NnhEzvMOS-25" edge="1">
          <mxGeometry relative="1" as="geometry" />
        </mxCell>
        <mxCell id="HN9k-R7xMB0NnhEzvMOS-70" value="client" style="ellipse;whiteSpace=wrap;html=1;" parent="1" vertex="1">
          <mxGeometry x="1240" y="1190" width="120" height="50" as="geometry" />
        </mxCell>
        <mxCell id="HN9k-R7xMB0NnhEzvMOS-71" style="edgeStyle=orthogonalEdgeStyle;rounded=0;orthogonalLoop=1;jettySize=auto;html=1;exitX=0.5;exitY=1;exitDx=0;exitDy=0;entryX=0.5;entryY=0;entryDx=0;entryDy=0;" parent="1" source="HN9k-R7xMB0NnhEzvMOS-72" target="HN9k-R7xMB0NnhEzvMOS-70" edge="1">
          <mxGeometry relative="1" as="geometry" />
        </mxCell>
        <mxCell id="HN9k-R7xMB0NnhEzvMOS-72" value="output fromat" style="ellipse;whiteSpace=wrap;html=1;" parent="1" vertex="1">
          <mxGeometry x="1240" y="1100" width="120" height="50" as="geometry" />
        </mxCell>
        <mxCell id="HN9k-R7xMB0NnhEzvMOS-73" value="format response" style="text;html=1;align=center;verticalAlign=middle;whiteSpace=wrap;rounded=0;" parent="1" vertex="1">
          <mxGeometry x="1190" y="1150" width="110" height="30" as="geometry" />
        </mxCell>
        <mxCell id="HN9k-R7xMB0NnhEzvMOS-74" value="response" style="text;html=1;align=center;verticalAlign=middle;whiteSpace=wrap;rounded=0;" parent="1" vertex="1">
          <mxGeometry x="1210" y="1070" width="110" height="30" as="geometry" />
        </mxCell>
      </root>
    </mxGraphModel>
  </diagram>
  <diagram name="Page-1" id="wq7eexIVvo236kP0wWua">
    <mxGraphModel dx="1674" dy="774" grid="1" gridSize="10" guides="1" tooltips="1" connect="1" arrows="1" fold="1" page="1" pageScale="1" pageWidth="827" pageHeight="1169" math="0" shadow="0">
      <root>
        <mxCell id="WIyWlLk6GJQsqaUBKTNV-0" />
        <mxCell id="WIyWlLk6GJQsqaUBKTNV-1" parent="WIyWlLk6GJQsqaUBKTNV-0" />
        <mxCell id="YitSDHGRgcJ5tugBbgUL-8" value="&lt;font style=&quot;font-size: 13px;&quot;&gt;Feasibility/&lt;br&gt;API selection&lt;/font&gt;" style="edgeStyle=orthogonalEdgeStyle;rounded=0;orthogonalLoop=1;jettySize=auto;html=1;" parent="WIyWlLk6GJQsqaUBKTNV-1" source="YitSDHGRgcJ5tugBbgUL-0" target="YitSDHGRgcJ5tugBbgUL-7" edge="1">
          <mxGeometry relative="1" as="geometry" />
        </mxCell>
        <mxCell id="YitSDHGRgcJ5tugBbgUL-0" value="Task Detection Layer" style="rounded=1;whiteSpace=wrap;html=1;" parent="WIyWlLk6GJQsqaUBKTNV-1" vertex="1">
          <mxGeometry x="350" y="130" width="120" height="60" as="geometry" />
        </mxCell>
        <mxCell id="YitSDHGRgcJ5tugBbgUL-6" value="&lt;font style=&quot;font-size: 13px;&quot;&gt;Basic Description&lt;/font&gt;" style="edgeStyle=orthogonalEdgeStyle;rounded=0;orthogonalLoop=1;jettySize=auto;html=1;exitX=1;exitY=0;exitDx=0;exitDy=0;entryX=0;entryY=0.5;entryDx=0;entryDy=0;" parent="WIyWlLk6GJQsqaUBKTNV-1" source="YitSDHGRgcJ5tugBbgUL-3" target="YitSDHGRgcJ5tugBbgUL-0" edge="1">
          <mxGeometry relative="1" as="geometry">
            <Array as="points">
              <mxPoint x="182" y="160" />
            </Array>
          </mxGeometry>
        </mxCell>
        <mxCell id="YitSDHGRgcJ5tugBbgUL-9" value="&lt;font style=&quot;font-size: 13px;&quot;&gt;Coding&amp;nbsp;&lt;br&gt;Instruction&lt;/font&gt;" style="edgeStyle=orthogonalEdgeStyle;rounded=0;orthogonalLoop=1;jettySize=auto;html=1;exitX=1;exitY=0.5;exitDx=0;exitDy=0;entryX=0;entryY=0.5;entryDx=0;entryDy=0;" parent="WIyWlLk6GJQsqaUBKTNV-1" source="YitSDHGRgcJ5tugBbgUL-3" target="YitSDHGRgcJ5tugBbgUL-7" edge="1">
          <mxGeometry relative="1" as="geometry" />
        </mxCell>
        <mxCell id="YitSDHGRgcJ5tugBbgUL-12" value="&lt;span style=&quot;font-size: 13px;&quot;&gt;&amp;nbsp;Interaction Instruction&lt;/span&gt;" style="edgeStyle=orthogonalEdgeStyle;rounded=0;orthogonalLoop=1;jettySize=auto;html=1;exitX=1;exitY=1;exitDx=0;exitDy=0;entryX=0;entryY=0.5;entryDx=0;entryDy=0;" parent="WIyWlLk6GJQsqaUBKTNV-1" source="YitSDHGRgcJ5tugBbgUL-3" target="YitSDHGRgcJ5tugBbgUL-10" edge="1">
          <mxGeometry relative="1" as="geometry">
            <Array as="points">
              <mxPoint x="182" y="430" />
            </Array>
          </mxGeometry>
        </mxCell>
        <mxCell id="YitSDHGRgcJ5tugBbgUL-3" value="API Documentation" style="ellipse;whiteSpace=wrap;html=1;" parent="WIyWlLk6GJQsqaUBKTNV-1" vertex="1">
          <mxGeometry x="80" y="260" width="120" height="80" as="geometry" />
        </mxCell>
        <mxCell id="YitSDHGRgcJ5tugBbgUL-11" value="&lt;font style=&quot;font-size: 13px;&quot;&gt;Exact Code&lt;br&gt;&lt;/font&gt;" style="edgeStyle=orthogonalEdgeStyle;rounded=0;orthogonalLoop=1;jettySize=auto;html=1;" parent="WIyWlLk6GJQsqaUBKTNV-1" source="YitSDHGRgcJ5tugBbgUL-7" target="YitSDHGRgcJ5tugBbgUL-10" edge="1">
          <mxGeometry relative="1" as="geometry" />
        </mxCell>
        <mxCell id="YitSDHGRgcJ5tugBbgUL-7" value="Code Generation Layer" style="rounded=1;whiteSpace=wrap;html=1;dashed=1;dashPattern=12 12;" parent="WIyWlLk6GJQsqaUBKTNV-1" vertex="1">
          <mxGeometry x="350" y="270" width="120" height="60" as="geometry" />
        </mxCell>
        <mxCell id="YitSDHGRgcJ5tugBbgUL-14" value="&lt;font style=&quot;font-size: 13px;&quot;&gt;Action Sequence&lt;/font&gt;" style="edgeStyle=orthogonalEdgeStyle;rounded=0;orthogonalLoop=1;jettySize=auto;html=1;" parent="WIyWlLk6GJQsqaUBKTNV-1" source="YitSDHGRgcJ5tugBbgUL-10" target="YitSDHGRgcJ5tugBbgUL-13" edge="1">
          <mxGeometry relative="1" as="geometry" />
        </mxCell>
        <mxCell id="YitSDHGRgcJ5tugBbgUL-10" value="Interaction Layer" style="rounded=1;whiteSpace=wrap;html=1;" parent="WIyWlLk6GJQsqaUBKTNV-1" vertex="1">
          <mxGeometry x="350" y="400" width="120" height="60" as="geometry" />
        </mxCell>
        <mxCell id="YitSDHGRgcJ5tugBbgUL-16" value="" style="edgeStyle=orthogonalEdgeStyle;rounded=0;orthogonalLoop=1;jettySize=auto;html=1;" parent="WIyWlLk6GJQsqaUBKTNV-1" source="YitSDHGRgcJ5tugBbgUL-13" target="YitSDHGRgcJ5tugBbgUL-15" edge="1">
          <mxGeometry relative="1" as="geometry" />
        </mxCell>
        <mxCell id="YitSDHGRgcJ5tugBbgUL-22" value="&lt;font style=&quot;font-size: 14px;&quot;&gt;Feedback&lt;/font&gt;" style="edgeStyle=orthogonalEdgeStyle;rounded=0;orthogonalLoop=1;jettySize=auto;html=1;" parent="WIyWlLk6GJQsqaUBKTNV-1" edge="1">
          <mxGeometry relative="1" as="geometry">
            <mxPoint x="110" y="350" as="targetPoint" />
            <mxPoint x="280" y="570" as="sourcePoint" />
          </mxGeometry>
        </mxCell>
        <mxCell id="YitSDHGRgcJ5tugBbgUL-13" value="Action Executor" style="rhombus;whiteSpace=wrap;html=1;" parent="WIyWlLk6GJQsqaUBKTNV-1" vertex="1">
          <mxGeometry x="350" y="530" width="120" height="80" as="geometry" />
        </mxCell>
        <mxCell id="YitSDHGRgcJ5tugBbgUL-15" value="Reformat and&lt;br&gt;output" style="rhombus;whiteSpace=wrap;html=1;" parent="WIyWlLk6GJQsqaUBKTNV-1" vertex="1">
          <mxGeometry x="370" y="650" width="80" height="80" as="geometry" />
        </mxCell>
        <mxCell id="YitSDHGRgcJ5tugBbgUL-18" value="" style="edgeStyle=orthogonalEdgeStyle;rounded=0;orthogonalLoop=1;jettySize=auto;html=1;" parent="WIyWlLk6GJQsqaUBKTNV-1" source="YitSDHGRgcJ5tugBbgUL-17" target="YitSDHGRgcJ5tugBbgUL-0" edge="1">
          <mxGeometry relative="1" as="geometry" />
        </mxCell>
        <mxCell id="YitSDHGRgcJ5tugBbgUL-17" value="User&lt;br&gt;Instruction" style="rhombus;whiteSpace=wrap;html=1;" parent="WIyWlLk6GJQsqaUBKTNV-1" vertex="1">
          <mxGeometry x="370" y="10" width="80" height="80" as="geometry" />
        </mxCell>
        <mxCell id="YitSDHGRgcJ5tugBbgUL-19" value="Vectorization Database&lt;br&gt;(Knowledge baseand RL)" style="ellipse;whiteSpace=wrap;html=1;dashed=1;" parent="WIyWlLk6GJQsqaUBKTNV-1" vertex="1">
          <mxGeometry x="660" y="280" width="120" height="80" as="geometry" />
        </mxCell>
      </root>
    </mxGraphModel>
  </diagram>
</mxfile>
